<?xml version="1.0" encoding="UTF-8" standalone="no"?>
<!-- Created with Inkscape (http://www.inkscape.org/) -->

<svg
   width="200"
   height="200"
   viewBox="0 0 52.916665 52.916668"
   version="1.1"
   id="svg5"
   inkscape:version="1.1.2 (b8e25be833, 2022-02-05)"
   sodipodi:docname="DoNothingIcon.svg"
   xmlns:inkscape="http://www.inkscape.org/namespaces/inkscape"
   xmlns:sodipodi="http://sodipodi.sourceforge.net/DTD/sodipodi-0.dtd"
   xmlns="http://www.w3.org/2000/svg"
   xmlns:svg="http://www.w3.org/2000/svg">
  <sodipodi:namedview
     id="namedview7"
     pagecolor="#ffffff"
     bordercolor="#666666"
     borderopacity="1.0"
     inkscape:pageshadow="2"
     inkscape:pageopacity="0.0"
     inkscape:pagecheckerboard="0"
     inkscape:document-units="mm"
     showgrid="false"
     units="px"
     inkscape:zoom="2.1190784"
     inkscape:cx="90.369474"
     inkscape:cy="165.16614"
     inkscape:window-width="1920"
     inkscape:window-height="1027"
     inkscape:window-x="-8"
     inkscape:window-y="-8"
     inkscape:window-maximized="1"
     inkscape:current-layer="g22494" />
  <defs
     id="defs2" />
  <g
     inkscape:label="Layer 1"
     inkscape:groupmode="layer"
     id="layer1">
    <g
       id="g22494"
       transform="translate(-37.39573,-45.223933)">
      <g
         id="g909"
         transform="translate(10.363192,-6.7423178)">
        <path
           style="fill:none;stroke:#000000;stroke-width:0.264583px;stroke-linecap:butt;stroke-linejoin:miter;stroke-opacity:1"
           d="M 52.17806,64.096907 Z"
           id="path20750" />
        <circle
           style="fill:#000000;fill-opacity:1;fill-rule:nonzero;stroke-width:0.315;stroke-miterlimit:4;stroke-dasharray:none"
           id="path20774"
           cx="53.50238"
           cy="78.311234"
           r="19.246729" />
        <path
           id="path21231"
           style="fill:#000000;fill-opacity:1;fill-rule:nonzero;stroke-width:0.39727;stroke-miterlimit:4;stroke-dasharray:none"
           transform="scale(0.26458333)"
           d="m 202.21289,223.4082 c -20.21927,0 -38.9873,8.32382 -52.44141,22.47071 12.37832,-5.72841 8.48305,-4.13594 26.2754,-10.6836 4.3601,-1.60454 8.64185,-3.49349 13.14843,-4.62304 6.9777,-1.74892 14.10294,-2.87171 21.20899,-3.99024 2.88729,-0.45448 5.78694,-0.86817 8.69531,-1.17969 -5.46008,-1.29857 -11.11411,-1.99414 -16.88672,-1.99414 z m 26.05664,4.81446 c -0.98836,0.005 -1.9768,0.001 -2.96484,0.0391 -4.78855,0.18372 -9.55029,0.86336 -14.28516,1.60156 -6.94012,1.08201 -13.90276,2.15108 -20.7168,3.85547 -4.48012,1.12061 -8.73582,3.00214 -13.07031,4.5957 -18.00264,6.61862 -13.27571,4.68958 -26.58203,10.82813 -3.59888,1.90161 -4.66088,2.43691 -6.45312,3.34961 -2.65441,3.55835 -5.04005,7.36639 -7.05079,11.45312 -4.55065,9.249 -6.80935,17.74696 -7.29687,27.73438 0.30095,0.19455 0.59134,0.40562 0.89648,0.59375 1.50952,0.93066 3.10075,1.72609 4.69727,2.49804 2.69135,1.30133 5.39372,2.59056 8.16211,3.71875 3.6273,1.47823 15.02743,5.05231 17.65234,5.80079 2.47779,0.70652 5.00675,1.22284 7.50977,1.83398 3.81973,0.85803 7.62723,1.77156 11.45898,2.57422 5.16978,1.08294 14.67839,2.66867 19.36133,3.2832 2.3786,0.31215 4.77719,0.46944 7.16992,0.64258 11.1243,0.80491 8.84171,0.65393 18.45313,0.70703 3.1633,0.0279 6.32706,0.0423 9.49023,0.082 4.29023,0.054 4.34094,0.17854 9.13477,0.0859 1.05543,-0.0204 2.11005,-0.10747 3.16406,-0.16602 1.94371,-0.10798 3.88683,-0.21799 5.83008,-0.33398 1.77996,-0.10628 3.55823,-0.2208 5.33789,-0.33203 3.29688,-0.20606 3.50587,3.12402 0.20898,3.33008 -1.77966,0.11123 -3.55793,0.2277 -5.33789,0.33398 -1.94917,0.11637 -3.89997,0.22566 -5.84961,0.33399 -1.059,0.0588 -2.1173,0.14522 -3.17773,0.16601 -5.05571,0.0987 -4.90057,-0.0239 -9.38281,-0.0801 -3.1488,-0.0395 -6.29834,-0.0564 -9.44727,-0.084 -9.64882,-0.0533 -7.38332,0.0964 -18.62695,-0.71289 -2.42465,-0.17452 -4.8533,-0.33304 -7.26367,-0.64844 -4.82404,-0.63123 -14.37315,-2.21763 -19.67969,-3.32812 -3.87067,-0.81001 -7.7157,-1.73165 -11.57422,-2.59766 -2.52313,-0.61585 -5.07251,-1.13602 -7.57031,-1.84766 -2.71802,-0.77437 -14.23679,-4.37675 -17.9668,-5.89453 -2.86096,-1.16415 -5.65504,-2.48907 -8.4375,-3.83008 -1.46083,-0.70404 -2.9082,-1.44279 -4.30664,-2.26367 -6.8e-4,0.14724 -0.01,0.28564 -0.01,0.4336 0,6.8686 0.48856,11.18214 1.94336,17.1582 2.99253,12.29274 9.04897,23.25185 17.2793,32.125 2.72468,0.62419 5.47164,1.17345 8.20117,1.74805 8.88955,1.87134 17.80002,3.74051 26.81055,4.89648 6.26179,0.80333 12.60357,0.78677 18.91406,0.96875 16.65827,0.48042 22.68062,0.60645 29.02539,0.43555 -0.62047,-0.44949 -1.23975,-0.90063 -1.86328,-1.34571 -2.80586,-2.00281 -2.82224,-1.90278 -5.95312,-4.30273 -0.77408,-0.59336 -1.51448,-1.23072 -2.27149,-1.8457 -1.08222,-0.9705 -2.20127,-1.89951 -3.24609,-2.91016 -0.65617,-0.63471 -1.24034,-1.34145 -1.85156,-2.01953 -3.04056,-3.373 -6.11676,-6.77556 -8.56836,-10.61328 -1.16703,-1.82686 -0.37232,-3.25136 0.81445,-3.22852 0.62164,0.012 1.35221,0.41963 1.96289,1.37696 2.36502,3.70746 5.34455,6.98781 8.28125,10.24414 0.60125,0.66668 1.17444,1.36082 1.82031,1.98437 0.96612,0.93272 2.00645,1.78516 3.00977,2.67773 0.71677,0.58073 1.41754,1.18189 2.15039,1.74219 3.07233,2.34896 3.01668,2.20067 5.76758,4.16407 1.11259,0.79406 2.21853,1.5967 3.32422,2.40039 0.66958,0.48671 1.31949,1.00229 2.00195,1.4707 2.55812,-0.11913 6.36942,-0.29287 10.22461,-0.49219 8.1835,-6.57153 14.99079,-14.91084 19.75781,-24.59961 5.18947,-10.54735 7.40039,-20.11791 7.40039,-32.03515 0,-8.92414 -1.12441,-15.76924 -3.94141,-23.99805 -1.53983,-4.49803 -5.23961,-11.95454 -7.92578,-15.97266 -8.62864,-12.90715 -20.69951,-22.46317 -34.54492,-27.78515 z m -74.9082,121.38476 c 11.14132,10.13258 25.42426,16.82698 41.17773,18.58399 7.87152,0.87793 17.17217,0.20275 25.44727,-1.84571 6.88421,-1.70415 13.39839,-4.442 19.39062,-8.02539 -0.28584,-0.16883 -0.57098,-0.33975 -0.85937,-0.5039 -0.70952,-0.44637 -1.41983,-0.89226 -2.12891,-1.33985 -8.54766,0.3751 -13.29848,0.31444 -33.54297,-0.26562 -6.3511,-0.18198 -12.73281,-0.16446 -19.03515,-0.97071 -9.153,-1.17092 -18.20702,-3.05586 -27.23828,-4.94921 -1.06882,-0.22408 -2.13886,-0.46308 -3.21094,-0.6836 z m 89.34765,6.58985 c -0.0585,0.003 -0.15483,0.009 -0.21289,0.0117 0.0374,0.0176 0.0798,0.038 0.11914,0.0566 0.0321,-0.0216 0.0617,-0.0467 0.0937,-0.0684 z" />
        <circle
           style="fill:#ffffff;fill-opacity:1;fill-rule:nonzero;stroke-width:0.586552;stroke-miterlimit:4;stroke-dasharray:none"
           id="path22229"
           cx="53.414097"
           cy="78.311234"
           r="16.686386" />
        <rect
           style="fill:#000000;fill-opacity:1;fill-rule:nonzero;stroke-width:0.323245;stroke-miterlimit:4;stroke-dasharray:none"
           id="rect22385"
           width="3.178359"
           height="37.787159"
           x="-25.867231"
           y="72.45285"
           ry="1.4718393"
           transform="rotate(-49.378171)" />
      </g>
    </g>
  </g>
</svg>
