<?xml version="1.0" encoding="UTF-8" standalone="no"?>
<!-- Created with Inkscape (http://www.inkscape.org/) -->

<svg
   width="200"
   height="200"
   viewBox="0 0 52.916665 52.916668"
   version="1.1"
   id="svg5"
   inkscape:version="1.1.2 (b8e25be833, 2022-02-05)"
   sodipodi:docname="TakeEverythingIcon.svg"
   xmlns:inkscape="http://www.inkscape.org/namespaces/inkscape"
   xmlns:sodipodi="http://sodipodi.sourceforge.net/DTD/sodipodi-0.dtd"
   xmlns="http://www.w3.org/2000/svg"
   xmlns:svg="http://www.w3.org/2000/svg">
  <sodipodi:namedview
     id="namedview7"
     pagecolor="#ffffff"
     bordercolor="#666666"
     borderopacity="1.0"
     inkscape:pageshadow="2"
     inkscape:pageopacity="0.0"
     inkscape:pagecheckerboard="0"
     inkscape:document-units="mm"
     showgrid="false"
     units="px"
     height="200px"
     inkscape:zoom="1.4984147"
     inkscape:cx="25.693822"
     inkscape:cy="149.49133"
     inkscape:window-width="1920"
     inkscape:window-height="1027"
     inkscape:window-x="-8"
     inkscape:window-y="-8"
     inkscape:window-maximized="1"
     inkscape:current-layer="g6663" />
  <defs
     id="defs2" />
  <g
     inkscape:label="Layer 1"
     inkscape:groupmode="layer"
     id="layer1">
    <g
       id="g6167"
       transform="translate(-26.133797,-51.427615)">
      <g
         id="g5841"
         transform="translate(0,3.6197978)">
        <path
           style="fill:#000000;fill-opacity:1;stroke:#000000;stroke-width:0.264583px;stroke-linecap:butt;stroke-linejoin:miter;stroke-opacity:1"
           d="m 37.963733,81.577883 c 0,0 1.236028,0.68423 3.663941,1.368459 2.427913,0.68423 6.047711,1.36846 10.81525,1.36846 4.767539,0 8.321121,-0.750446 10.682819,-1.500892 2.361697,-0.750445 3.53151,-1.500891 3.53151,-1.500891 0,0 1.36846,-0.595942 0.286935,-1.191885 -1.081525,-0.595942 -4.613035,-1.191884 -14.412975,-1.191884 -9.799941,0 -13.441811,0.662158 -14.633695,1.324317 -1.191885,0.662158 0.06621,1.324316 0.06621,1.324316 z"
           id="path501"
           sodipodi:nodetypes="cssscsssc" />
        <path
           style="fill:#000000;fill-opacity:1;stroke:#000000;stroke-width:0.264583px;stroke-linecap:butt;stroke-linejoin:miter;stroke-opacity:1"
           d="m 37.963734,81.577883 c 0,0 -2.16305,3.377007 -1.357425,6.754013 0.805625,3.377007 4.579927,6.754014 16.454629,6.754014 11.874704,0 15.273782,-3.443223 15.704184,-6.886446 0.430403,-3.443222 -2.107871,-6.886445 -2.107871,-6.886445 -4.252526,1.898193 -9.476218,3.178361 -14.25847,3.222504 -4.782253,0.04414 -11.859988,-1.677465 -14.435047,-2.95764 z"
           id="path616"
           sodipodi:nodetypes="cssscsc" />
      </g>
    </g>
    <g
       id="g6663"
       transform="translate(4.735037,-41.404276)">
      <g
         id="g861"
         transform="matrix(1,0,0,-1,1.059453,115.12187)">
        <rect
           style="fill:#000000;fill-opacity:1;stroke-width:0.304138"
           id="rect6309"
           width="1.6231506"
           height="17.982937"
           x="20.233412"
           y="49.364056" />
        <rect
           style="fill:#000000;fill-opacity:1;stroke-width:0.190267"
           id="rect6309-7"
           width="1.6231506"
           height="7.0378952"
           x="-16.150848"
           y="61.403015"
           transform="rotate(-30)" />
        <rect
           style="fill:#000000;fill-opacity:1;stroke-width:0.190267"
           id="rect6309-7-4"
           width="1.6231506"
           height="7.0378952"
           x="-52.601837"
           y="40.358028"
           transform="matrix(-0.8660254,-0.5,-0.5,0.8660254,0,0)" />
      </g>
    </g>
  </g>
</svg>
