<?xml version="1.0" encoding="UTF-8" standalone="no"?>
<!-- Created with Inkscape (http://www.inkscape.org/) -->

<svg
   width="200"
   height="200"
   viewBox="0 0 52.916665 52.916668"
   version="1.1"
   id="svg5"
   inkscape:version="1.1.2 (b8e25be833, 2022-02-05)"
   sodipodi:docname="LooseEverythingIconAlt.svg"
   xmlns:inkscape="http://www.inkscape.org/namespaces/inkscape"
   xmlns:sodipodi="http://sodipodi.sourceforge.net/DTD/sodipodi-0.dtd"
   xmlns="http://www.w3.org/2000/svg"
   xmlns:svg="http://www.w3.org/2000/svg">
  <sodipodi:namedview
     id="namedview7"
     pagecolor="#ffffff"
     bordercolor="#666666"
     borderopacity="1.0"
     inkscape:pageshadow="2"
     inkscape:pageopacity="0.0"
     inkscape:pagecheckerboard="0"
     inkscape:document-units="mm"
     showgrid="false"
     units="px"
     inkscape:zoom="2.1190784"
     inkscape:cx="69.605731"
     inkscape:cy="126.47007"
     inkscape:window-width="1920"
     inkscape:window-height="1027"
     inkscape:window-x="-8"
     inkscape:window-y="-8"
     inkscape:window-maximized="1"
     inkscape:current-layer="layer1" />
  <defs
     id="defs2" />
  <g
     inkscape:label="Layer 1"
     inkscape:groupmode="layer"
     id="layer1">
    <g
       id="g10731"
       transform="matrix(1.0720166,0,0,1.0720166,-78.246048,-122.35186)">
      <g
         id="g8134"
         transform="translate(42.936848,70.158249)">
        <text
           xml:space="preserve"
           style="font-style:normal;font-weight:normal;font-size:24.6944px;line-height:1.25;font-family:sans-serif;fill:#000000;fill-opacity:1;stroke:none;stroke-width:0.264583"
           x="45.649635"
           y="85.873695"
           id="text3451"><tspan
             sodipodi:role="line"
             id="tspan3449"
             style="font-size:24.6944px;stroke-width:0.264583"
             x="45.649635"
             y="85.873695">B</tspan></text>
        <rect
           style="fill:#000000;stroke-width:0.315"
           id="rect6645"
           width="1.9512984"
           height="3.6380322"
           x="52.486721"
           y="85.758072" />
        <rect
           style="fill:#000000;stroke-width:0.315"
           id="rect6647"
           width="1.9512984"
           height="3.7372308"
           x="52.486721"
           y="64.459122" />
      </g>
      <path
         style="fill:#000000;fill-opacity:1;stroke:#000000;stroke-width:0.264583px;stroke-linecap:butt;stroke-linejoin:miter;stroke-opacity:1"
         d="m 104.62933,141.43903 c 0,0 -2.24506,-0.0935 1.16931,-6.26747 3.41437,-6.17393 -2.10475,-8.65285 -2.10475,-8.65285 1.54348,2.66601 -3.701879,11.11241 -3.16915,5.23515 0.46982,-5.18325 -8.898068,-15.80566 -6.793321,-13.09288 2.104747,2.71279 0.291859,19.64909 -0.42095,12.16077 -0.416223,-4.37258 -2.186943,-5.35141 -2.186943,-5.35141 0,0 1.384766,0.5462 -1.590254,5.79975 -3.235617,5.71375 0.783778,7.73678 0.783778,7.73678 0,0 -1.496707,-4.06917 2e-6,-6.40778 1.49671,-2.33861 1.637026,-5.23848 1.637026,-5.23848 0,0 0.561266,6.82873 1.262849,7.81095 0.701582,0.98222 2.432152,-4.8643 2.666013,-5.65943 0.233861,-0.79513 0.233861,-6.12716 -0.280633,-7.15615 -0.514494,-1.02898 2.432152,5.65944 2.899874,8.55931 0.467721,2.89988 -0.187088,3.41437 0.140317,4.11595 0.327405,0.70158 2.104742,1.54348 2.759552,0.98222 0.65481,-0.56127 2.10475,-2.05798 2.47893,-3.3676 0.37418,-1.30962 1.1693,-3.27405 0.93544,-4.0224 -0.23386,-0.74836 1.87089,2.61924 0.79513,4.5369 -1.07576,1.91765 -2.66601,3.64822 -2.71279,4.81753 -0.0468,1.1693 -0.46772,2.47892 1.73057,3.46114 z"
         id="path9008"
         sodipodi:nodetypes="cscssscscscssssssssssc" />
    </g>
  </g>
</svg>
