<?xml version="1.0" encoding="UTF-8" standalone="no"?>
<!-- Created with Inkscape (http://www.inkscape.org/) -->

<svg
   width="200"
   height="200"
   viewBox="0 0 52.916665 52.916668"
   version="1.1"
   id="svg5"
   inkscape:version="1.1.2 (b8e25be833, 2022-02-05)"
   sodipodi:docname="TakeEverythingIconAlt.svg"
   xmlns:inkscape="http://www.inkscape.org/namespaces/inkscape"
   xmlns:sodipodi="http://sodipodi.sourceforge.net/DTD/sodipodi-0.dtd"
   xmlns="http://www.w3.org/2000/svg"
   xmlns:svg="http://www.w3.org/2000/svg">
  <sodipodi:namedview
     id="namedview7"
     pagecolor="#ffffff"
     bordercolor="#666666"
     borderopacity="1.0"
     inkscape:pageshadow="2"
     inkscape:pageopacity="0.0"
     inkscape:pagecheckerboard="0"
     inkscape:document-units="mm"
     showgrid="false"
     units="px"
     inkscape:zoom="1.4984147"
     inkscape:cx="82.420441"
     inkscape:cy="124.13119"
     inkscape:window-width="1920"
     inkscape:window-height="1027"
     inkscape:window-x="-8"
     inkscape:window-y="-8"
     inkscape:window-maximized="1"
     inkscape:current-layer="layer1" />
  <defs
     id="defs2" />
  <g
     inkscape:label="Layer 1"
     inkscape:groupmode="layer"
     id="layer1">
    <g
       id="g14185"
       transform="translate(-26.720518,-52.195995)">
      <g
         id="g13293"
         transform="translate(17.594791,47.360415)">
        <g
           id="g6167"
           transform="translate(-17.008071,-50.51898)"
           style="fill:#ffcc00">
          <g
             id="g5841"
             transform="translate(0,3.6197978)"
             style="fill:#ffcc00">
            <path
               style="fill:#ffcc00;fill-opacity:1;stroke:#000000;stroke-width:0.264583px;stroke-linecap:butt;stroke-linejoin:miter;stroke-opacity:1"
               d="m 37.963733,81.577883 c 0,0 1.236028,0.68423 3.663941,1.368459 2.427913,0.68423 6.047711,1.36846 10.81525,1.36846 4.767539,0 8.321121,-0.750446 10.682819,-1.500892 2.361697,-0.750445 3.53151,-1.500891 3.53151,-1.500891 0,0 1.36846,-0.595942 0.286935,-1.191885 -1.081525,-0.595942 -4.613035,-1.191884 -14.412975,-1.191884 -9.799941,0 -13.441811,0.662158 -14.633695,1.324317 -1.191885,0.662158 0.06621,1.324316 0.06621,1.324316 z"
               id="path501"
               sodipodi:nodetypes="cssscsssc" />
            <path
               style="fill:#ffcc00;fill-opacity:1;stroke:#000000;stroke-width:0.264583px;stroke-linecap:butt;stroke-linejoin:miter;stroke-opacity:1"
               d="m 37.963734,81.577883 c 0,0 -2.16305,3.377007 -1.357425,6.754013 0.805625,3.377007 4.579927,6.754014 16.454629,6.754014 11.874704,0 15.273782,-3.443223 15.704184,-6.886446 0.430403,-3.443222 -2.107871,-6.886445 -2.107871,-6.886445 -4.252526,1.898193 -9.476218,3.178361 -14.25847,3.222504 -4.782253,0.04414 -11.859988,-1.677465 -14.435047,-2.95764 z"
               id="path616"
               sodipodi:nodetypes="cssscsc" />
          </g>
        </g>
        <path
           style="fill:#ffd42a;stroke:#000000;stroke-width:0.264583px;stroke-linecap:butt;stroke-linejoin:miter;stroke-opacity:1"
           d="m 22.007499,32.179477 -2.392502,-3.484902 3.477711,2.388332 z"
           id="path12305" />
        <path
           style="fill:#ffcc00;stroke:#000000;stroke-width:0.264583px;stroke-linecap:butt;stroke-linejoin:miter;stroke-opacity:1"
           d="m 24.566362,30.129721 -2.892367,-5.572737 4.706186,4.614054 z"
           id="path12522" />
        <path
           style="fill:#ffcc00;stroke:#000000;stroke-width:0.264583px;stroke-linecap:butt;stroke-linejoin:miter;stroke-opacity:1"
           d="m 27.946614,28.376559 -2.38125,-8.135937 4.034896,7.474479 z"
           id="path12524" />
        <path
           style="fill:#ffcc00;stroke:#000000;stroke-width:0.264583px;stroke-linecap:butt;stroke-linejoin:miter;stroke-opacity:1"
           d="M 31.043443,27.201959 29.808352,16.417277 33.077578,26.911395 Z"
           id="path12526" />
        <path
           style="fill:#ffcc00;stroke:#000000;stroke-width:0.264583px;stroke-linecap:butt;stroke-linejoin:miter;stroke-opacity:1"
           d="m 34.495049,26.755987 0.463021,-12.766145 1.653646,12.7 z"
           id="path12528" />
        <path
           style="fill:#ffcc00;stroke:#000000;stroke-width:0.264583px;stroke-linecap:butt;stroke-linejoin:miter;stroke-opacity:1"
           d="M 37.877026,27.0046 40.751247,16.893835 39.560912,27.360388 Z"
           id="path12530" />
        <path
           style="fill:#ffcc00;stroke:#000000;stroke-width:0.264583px;stroke-linecap:butt;stroke-linejoin:miter;stroke-opacity:1"
           d="m 40.95598,27.87868 3.533546,-7.25534 -2.131725,8.006208 z"
           id="path12532" />
        <path
           style="fill:#ffcc00;stroke:#000000;stroke-width:0.264583px;stroke-linecap:butt;stroke-linejoin:miter;stroke-opacity:1"
           d="m 43.862699,29.351792 2.555853,-3.906513 -1.227115,4.944964 z"
           id="path12534" />
        <path
           style="fill:#ffcc00;stroke:#000000;stroke-width:0.264583px;stroke-linecap:butt;stroke-linejoin:miter;stroke-opacity:1"
           d="m 46.203188,31.228201 2.369834,-1.76672 -1.440778,2.453244 z"
           id="path12536" />
      </g>
      <path
         style="fill:#000000;stroke:#000000;stroke-width:0.264583px;stroke-linecap:butt;stroke-linejoin:miter;stroke-opacity:1"
         d="m 52.619007,83.773694 c 0,0 -8.830466,-0.297656 -12.005466,-1.951302 -3.175,-1.653646 11.575521,-1.620573 11.575521,-1.620573 0,0 10.58333,-0.165364 13.262237,0.826823 2.678906,0.992188 -10.847917,2.811198 -12.832292,2.745052 z"
         id="path14055" />
    </g>
  </g>
</svg>
